<?xml version="1.0" encoding="UTF-8"?>
<svg width="510px" height="69px" viewBox="0 0 510 69" version="1.1" xmlns="http://www.w3.org/2000/svg" xmlns:xlink="http://www.w3.org/1999/xlink">
    <!-- Generator: Sketch 63.1 (92452) - https://sketch.com -->
    <title>Wacom for developers</title>
    <desc>Created with Sketch.</desc>
    <defs>
        <polygon id="path-1" points="0.432106667 0.0692 7.648 0.0692 7.648 6.8577 0.432106667 6.8577"></polygon>
    </defs>
    <g id="Wacom-for-developers" stroke="none" stroke-width="1" fill="none" fill-rule="evenodd">
        <g id="Group-25" transform="translate(1.000000, 15.000000)">
            <g id="Group-3" transform="translate(186.000000, 0.000000)">
                <mask id="mask-2" fill="white">
                    <use xlink:href="#path-1"></use>
                </mask>
                <g id="Clip-2"></g>
                <path d="M4.71850667,2.1687 C4.54250667,2.0747 4.25664,2.0292 3.87264,2.0292 L3.27210667,2.0292 L3.27210667,3.3762 L3.90250667,3.3762 C4.19850667,3.3762 4.42570667,3.3512 4.57290667,3.2947 C4.84437333,3.1907 4.98090667,2.9967 4.98090667,2.7117 C4.98090667,2.4422 4.89664,2.2572 4.71850667,2.1687 L4.71850667,2.1687 Z M3.96490667,1.5747 C4.45610667,1.5747 4.81877333,1.6217 5.04544,1.7102 C5.45770667,1.8727 5.66304,2.1857 5.66304,2.6572 C5.66304,2.9892 5.53450667,3.2362 5.27317333,3.3927 C5.13824,3.4742 4.94890667,3.5362 4.70037333,3.5742 C5.01344,3.6192 5.24277333,3.7417 5.38517333,3.9417 C5.52864,4.1362 5.60064,4.3287 5.60064,4.5192 L5.60064,4.7867 C5.60064,4.8772 5.60064,4.9682 5.61077333,5.0657 C5.61504,5.1642 5.63104,5.2282 5.64490667,5.2602 L5.66730667,5.3072 L5.01344,5.3072 C5.00917333,5.2922 4.99904,5.2812 4.99904,5.2677 C4.99530667,5.2582 4.99104,5.2452 4.99104,5.2282 L4.97290667,5.1072 L4.97290667,4.8132 C4.97290667,4.3832 4.85237333,4.0962 4.60277333,3.9607 C4.45184,3.8797 4.19637333,3.8397 3.82624,3.8397 L3.27210667,3.8397 L3.27210667,5.3072 L2.57184,5.3072 L2.57184,1.5747 L3.96490667,1.5747 Z M1.83957333,1.3897 C1.23264,1.9612 0.930773333,2.6497 0.930773333,3.4572 C0.930773333,4.2702 1.23264,4.9642 1.83317333,5.5357 C2.43904,6.1072 3.17344,6.3957 4.03744,6.3957 C4.89664,6.3957 5.63104,6.1072 6.23584,5.5357 C6.83744,4.9642 7.13930667,4.2702 7.13930667,3.4572 C7.13930667,2.6497 6.83744,1.9612 6.23584,1.3897 C5.63104,0.8182 4.89664,0.5317 4.03744,0.5317 C3.17717333,0.5317 2.44917333,0.8182 1.83957333,1.3897 L1.83957333,1.3897 Z M6.59584,5.8602 C5.88757333,6.5242 5.03530667,6.8577 4.03157333,6.8577 C3.03050667,6.8577 2.17930667,6.5242 1.47424,5.8602 C0.778773333,5.1942 0.432106667,4.3927 0.432106667,3.4477 C0.432106667,2.5157 0.778773333,1.7162 1.48810667,1.0577 C2.19370667,0.3977 3.04064,0.0692 4.03157333,0.0692 C5.03530667,0.0692 5.88757333,0.3977 6.59584,1.0577 C7.29984,1.7162 7.64810667,2.5157 7.64810667,3.4477 C7.64810667,4.3907 7.29984,5.1942 6.59584,5.8602 L6.59584,5.8602 Z" id="Fill-1" fill="#1D1D1B" mask="url(#mask-2)"></path>
            </g>
            <path d="M162.500964,3.84751204 C160.417984,1.13242376 157.679732,0 153.162268,0 C146.383903,0 142,3.87869755 142,9.8784969 L142,34 L146.276378,34 L146.276378,10.4373997 C146.276378,6.266338 148.594658,4.23879271 153.356101,4.23879271 C157.875494,4.23879271 160.361088,6.2994726 160.361088,10.0388099 L160.361088,34 L164.635537,34 L164.635537,10.0388099 C164.635537,6.2994726 167.127399,4.23879271 171.638595,4.23879271 C176.405342,4.23879271 178.728926,6.266338 178.728926,10.4373997 L178.728926,34 L183,34 L183,9.8784969 C183,3.87869755 178.619955,0 171.842553,0 C167.318339,0 164.586356,1.13242376 162.500964,3.84751204" id="Fill-4" fill="#1D1D1B"></path>
            <path d="M131.645044,23.3167601 C131.645044,27.4292341 128.916574,29.7835046 124.154384,29.7835046 L118.843163,29.7835046 C114.014736,29.7835046 111.35054,27.4858411 111.35054,23.3167601 L111.35054,10.6880781 C111.35054,6.57028204 114.081464,4.21262487 118.843163,4.21262487 L124.154384,4.21262487 C128.916574,4.21262487 131.645044,6.57028204 131.645044,10.6880781 L131.645044,23.3167601 Z M124.315315,0 L118.678307,0 C110.651372,0 107,5.24896832 107,10.1297493 L107,23.8697669 C107,28.7505479 110.644012,34 118.64298,34 L124.358001,34 C132.359422,34 136,28.7505479 136,23.8697669 L136,10.1297493 C136,5.24896832 132.346665,0 124.315315,0 L124.315315,0 Z" id="Fill-6" fill="#1D1D1B"></path>
            <path d="M90.3039543,0 C82.5369223,0 79,5.24945214 79,10.1297493 L79,23.8697669 C79,28.7505479 82.5369223,34 90.3039543,34 L95.1119581,34 C99.0681277,34 101.645545,33.4140934 103.727489,32.0414947 L104,31.8644164 L101.573606,28.2870478 L101.321105,28.4423542 C99.7689376,29.396932 97.8080038,29.7839884 94.5640781,29.7839884 L90.4973797,29.7839884 C85.8103859,29.7839884 83.2258218,27.4858411 83.2258218,23.3167601 L83.2258218,10.6885619 C83.2258218,6.51415886 85.8103859,4.21262487 90.4973797,4.21262487 L94.5640781,4.21262487 C97.8046689,4.21262487 99.7651263,4.60306799 101.321105,5.56151635 L101.573606,5.71295216 L104,2.13558357 L103.727489,1.95995674 C101.64888,0.585906594 99.0695569,0 95.1119581,0 L90.3039543,0 Z" id="Fill-8" fill="#1D1D1B"></path>
            <path d="M58.7423862,0 C54.9865042,0 53.2146184,0.416085608 51.2578526,1.17713521 L50.9186671,1.30873438 L53.0345157,5.12898085 L53.2924878,5.02447562 C54.737609,4.42453824 56.3083721,4.21262487 59.2922489,4.21262487 L62.4705601,4.21262487 C67.1030694,4.21262487 69.7597038,6.57076586 69.7597038,10.6885619 L69.7597038,23.3167601 C69.7597038,27.4292341 67.1030694,29.7839884 62.4705601,29.7839884 L57.2943987,29.7839884 C52.5448465,29.7839884 50.2359967,27.8380624 50.2359967,23.8276745 C50.2359967,19.8492188 52.5448465,17.9124854 57.2943987,17.9124854 L64.5094948,17.9124854 L64.5094948,13.7037311 L57.0927983,13.7037311 C50.0420399,13.7037311 46,17.4088283 46,23.8697669 C46,30.119276 50.2512839,34 57.0927983,34 L62.6640392,34 C70.4504956,34 74,28.7505479 74,23.8697669 L74,10.1297493 C74,5.24945214 70.4504956,0 62.6640392,0 L58.7423862,0 Z" id="Fill-10" fill="#1D1D1B"></path>
            <path d="M36.7249882,0 L36.7249882,23.5606512 C36.7249882,27.7297638 34.4093368,29.7538982 29.6420743,29.7538982 C25.124071,29.7538982 22.6353363,27.6932183 22.6353363,23.9611901 L22.6353363,0 L18.3608067,0 L18.3608067,23.9611901 C18.3608067,27.6932183 15.8768932,29.7538982 11.3559972,29.7538982 C6.59162747,29.7538982 4.27549389,27.7297638 4.27549389,23.5606512 L4.27549389,0 L0,0 L0,24.1176049 C0,30.1178915 4.38059737,34 11.1607361,34 C15.6821143,34 18.4181797,32.8656271 20.5004821,30.147128 C22.5823024,32.8656271 25.3193321,34 29.8392639,34 C36.6179563,34 41,30.1178915 41,24.1176049 L41,0 L36.7249882,0 Z" id="Fill-12" fill="#1D1D1B"></path>
        </g>
        <path d="M242.339,49 L242.339,32.272 L246.89,32.272 L246.89,29.812 L242.339,29.812 L242.339,24.892 C242.339,24.2086667 242.38,23.5663333 242.462,22.965 C242.544,22.3636667 242.708,21.8375 242.954,21.3865 C243.2,20.9355 243.555333,20.587 244.02,20.341 C244.484667,20.095 245.086,19.972 245.824,19.972 C246.179333,19.972 246.534667,19.9993333 246.89,20.054 C247.245333,20.1086667 247.587,20.177 247.915,20.259 L247.915,20.259 L248.407,17.799 C248.024333,17.717 247.634833,17.6486667 247.2385,17.594 C246.842167,17.5393333 246.452667,17.512 246.07,17.512 C244.129333,17.512 242.571333,18.0518333 241.396,19.1315 C240.220667,20.2111667 239.633,22.022 239.633,24.564 L239.633,24.564 L239.633,29.812 L235.574,29.812 L235.574,32.272 L239.633,32.272 L239.633,49 L242.339,49 Z M259.272,49.492 C260.775333,49.492 262.148833,49.2391667 263.3925,48.7335 C264.636167,48.2278333 265.709,47.524 266.611,46.622 C267.513,45.72 268.216833,44.654 268.7225,43.424 C269.228167,42.194 269.481,40.8546667 269.481,39.406 C269.481,37.9573333 269.228167,36.618 268.7225,35.388 C268.216833,34.158 267.513,33.092 266.611,32.19 C265.709,31.288 264.636167,30.5841667 263.3925,30.0785 C262.148833,29.5728333 260.775333,29.32 259.272,29.32 C257.796,29.32 256.436167,29.5728333 255.1925,30.0785 C253.948833,30.5841667 252.876,31.288 251.974,32.19 C251.072,33.092 250.368167,34.158 249.8625,35.388 C249.356833,36.618 249.104,37.9573333 249.104,39.406 C249.104,40.8546667 249.356833,42.194 249.8625,43.424 C250.368167,44.654 251.072,45.72 251.974,46.622 C252.876,47.524 253.948833,48.2278333 255.1925,48.7335 C256.436167,49.2391667 257.796,49.492 259.272,49.492 Z M259.272,47.032 C258.151333,47.032 257.146833,46.8338333 256.2585,46.4375 C255.370167,46.0411667 254.6185,45.5013333 254.0035,44.818 C253.3885,44.1346667 252.910167,43.3283333 252.5685,42.399 C252.226833,41.4696667 252.056,40.472 252.056,39.406 C252.056,38.34 252.226833,37.3423333 252.5685,36.413 C252.910167,35.4836667 253.3885,34.6773333 254.0035,33.994 C254.6185,33.3106667 255.370167,32.7708333 256.2585,32.3745 C257.146833,31.9781667 258.151333,31.78 259.272,31.78 C260.392667,31.78 261.397167,31.9781667 262.2855,32.3745 C263.173833,32.7708333 263.932333,33.3106667 264.561,33.994 C265.189667,34.6773333 265.674833,35.4836667 266.0165,36.413 C266.358167,37.3423333 266.529,38.34 266.529,39.406 C266.529,40.472 266.358167,41.4696667 266.0165,42.399 C265.674833,43.3283333 265.189667,44.1346667 264.561,44.818 C263.932333,45.5013333 263.173833,46.0411667 262.2855,46.4375 C261.397167,46.8338333 260.392667,47.032 259.272,47.032 Z M277.394,49 L277.394,38.176 C277.394,37.52 277.510167,36.8366667 277.7425,36.126 C277.974833,35.4153333 278.337,34.7525 278.829,34.1375 C279.321,33.5225 279.936,33.0168333 280.674,32.6205 C281.412,32.2241667 282.300333,32.026 283.339,32.026 C284.022333,32.026 284.541667,32.0943333 284.897,32.231 L284.897,32.231 L285.43,29.566 C284.856,29.402 284.186333,29.32 283.421,29.32 C282.573667,29.32 281.815167,29.4361667 281.1455,29.6685 C280.475833,29.9008333 279.888167,30.2083333 279.3825,30.591 C278.876833,30.9736667 278.446333,31.4041667 278.091,31.8825 C277.735667,32.3608333 277.462333,32.8596667 277.271,33.379 L277.271,33.379 L277.189,33.379 L277.189,29.812 L274.524,29.812 C274.551333,31.206 274.5855,32.3403333 274.6265,33.215 C274.6675,34.0896667 274.688,34.9506667 274.688,35.798 L274.688,35.798 L274.688,49 L277.394,49 Z M309.62,49 C311.424,49 313.234833,48.6993333 315.0525,48.098 C316.870167,47.4966667 318.510167,46.5878333 319.9725,45.3715 C321.434833,44.1551667 322.617,42.645 323.519,40.841 C324.421,39.037 324.872,36.9186667 324.872,34.486 C324.872,32.0806667 324.421,29.9691667 323.519,28.1515 C322.617,26.3338333 321.434833,24.8168333 319.9725,23.6005 C318.510167,22.3841667 316.870167,21.4753333 315.0525,20.874 C313.234833,20.2726667 311.424,19.972 309.62,19.972 L309.62,19.972 L299.985,19.972 L299.985,49 L309.62,49 Z M308.677,46.294 L302.937,46.294 L302.937,22.678 L308.677,22.678 C310.891,22.678 312.811167,23.0128333 314.4375,23.6825 C316.063833,24.3521667 317.416833,25.2405 318.4965,26.3475 C319.576167,27.4545 320.375667,28.7118333 320.895,30.1195 C321.414333,31.5271667 321.674,32.9826667 321.674,34.486 C321.674,35.9893333 321.414333,37.4448333 320.895,38.8525 C320.375667,40.2601667 319.576167,41.5175 318.4965,42.6245 C317.416833,43.7315 316.063833,44.6198333 314.4375,45.2895 C312.811167,45.9591667 310.891,46.294 308.677,46.294 L308.677,46.294 Z M338.73,49.492 C340.315333,49.492 341.798167,49.1776667 343.1785,48.549 C344.558833,47.9203333 345.823,46.8816667 346.971,45.433 L346.971,45.433 L344.88,43.711 C344.333333,44.5856667 343.533833,45.3578333 342.4815,46.0275 C341.429167,46.6971667 340.178667,47.032 338.73,47.032 C337.773333,47.032 336.885,46.8543333 336.065,46.499 C335.245,46.1436667 334.520667,45.6585 333.892,45.0435 C333.263333,44.4285 332.757667,43.6973333 332.375,42.85 C331.992333,42.0026667 331.76,41.1006667 331.678,40.144 L331.678,40.144 L347.668,40.144 L347.668,38.914 C347.668,37.602 347.463,36.3651667 347.053,35.2035 C346.643,34.0418333 346.0485,33.0305 345.2695,32.1695 C344.4905,31.3085 343.527,30.6183333 342.379,30.099 C341.231,29.5796667 339.932667,29.32 338.484,29.32 C337.117333,29.32 335.846333,29.5728333 334.671,30.0785 C333.495667,30.5841667 332.470667,31.288 331.596,32.19 C330.721333,33.092 330.038,34.158 329.546,35.388 C329.054,36.618 328.808,37.9573333 328.808,39.406 C328.808,40.8546667 329.060833,42.194 329.5665,43.424 C330.072167,44.654 330.762333,45.72 331.637,46.622 C332.511667,47.524 333.557167,48.2278333 334.7735,48.7335 C335.989833,49.2391667 337.308667,49.492 338.73,49.492 Z M344.716,37.93 L331.76,37.93 C331.76,37.1373333 331.9445,36.372 332.3135,35.634 C332.6825,34.896 333.1745,34.24 333.7895,33.666 C334.4045,33.092 335.122,32.6341667 335.942,32.2925 C336.762,31.9508333 337.609333,31.78 338.484,31.78 C340.452,31.78 341.982667,32.3471667 343.076,33.4815 C344.169333,34.6158333 344.716,36.0986667 344.716,37.93 L344.716,37.93 Z M361.034,49 L368.824,29.812 L365.749,29.812 L359.64,45.966 L359.558,45.966 L353.449,29.812 L350.21,29.812 L358,49 L361.034,49 Z M381.288,49.492 C382.873333,49.492 384.356167,49.1776667 385.7365,48.549 C387.116833,47.9203333 388.381,46.8816667 389.529,45.433 L389.529,45.433 L387.438,43.711 C386.891333,44.5856667 386.091833,45.3578333 385.0395,46.0275 C383.987167,46.6971667 382.736667,47.032 381.288,47.032 C380.331333,47.032 379.443,46.8543333 378.623,46.499 C377.803,46.1436667 377.078667,45.6585 376.45,45.0435 C375.821333,44.4285 375.315667,43.6973333 374.933,42.85 C374.550333,42.0026667 374.318,41.1006667 374.236,40.144 L374.236,40.144 L390.226,40.144 L390.226,38.914 C390.226,37.602 390.021,36.3651667 389.611,35.2035 C389.201,34.0418333 388.6065,33.0305 387.8275,32.1695 C387.0485,31.3085 386.085,30.6183333 384.937,30.099 C383.789,29.5796667 382.490667,29.32 381.042,29.32 C379.675333,29.32 378.404333,29.5728333 377.229,30.0785 C376.053667,30.5841667 375.028667,31.288 374.154,32.19 C373.279333,33.092 372.596,34.158 372.104,35.388 C371.612,36.618 371.366,37.9573333 371.366,39.406 C371.366,40.8546667 371.618833,42.194 372.1245,43.424 C372.630167,44.654 373.320333,45.72 374.195,46.622 C375.069667,47.524 376.115167,48.2278333 377.3315,48.7335 C378.547833,49.2391667 379.866667,49.492 381.288,49.492 Z M387.274,37.93 L374.318,37.93 C374.318,37.1373333 374.5025,36.372 374.8715,35.634 C375.2405,34.896 375.7325,34.24 376.3475,33.666 C376.9625,33.092 377.68,32.6341667 378.5,32.2925 C379.32,31.9508333 380.167333,31.78 381.042,31.78 C383.01,31.78 384.540667,32.3471667 385.634,33.4815 C386.727333,34.6158333 387.274,36.0986667 387.274,37.93 L387.274,37.93 Z M398.467,49 L398.467,18.004 L395.761,18.004 L395.761,49 L398.467,49 Z M414.17,49.492 C415.673333,49.492 417.046833,49.2391667 418.2905,48.7335 C419.534167,48.2278333 420.607,47.524 421.509,46.622 C422.411,45.72 423.114833,44.654 423.6205,43.424 C424.126167,42.194 424.379,40.8546667 424.379,39.406 C424.379,37.9573333 424.126167,36.618 423.6205,35.388 C423.114833,34.158 422.411,33.092 421.509,32.19 C420.607,31.288 419.534167,30.5841667 418.2905,30.0785 C417.046833,29.5728333 415.673333,29.32 414.17,29.32 C412.694,29.32 411.334167,29.5728333 410.0905,30.0785 C408.846833,30.5841667 407.774,31.288 406.872,32.19 C405.97,33.092 405.266167,34.158 404.7605,35.388 C404.254833,36.618 404.002,37.9573333 404.002,39.406 C404.002,40.8546667 404.254833,42.194 404.7605,43.424 C405.266167,44.654 405.97,45.72 406.872,46.622 C407.774,47.524 408.846833,48.2278333 410.0905,48.7335 C411.334167,49.2391667 412.694,49.492 414.17,49.492 Z M414.17,47.032 C413.049333,47.032 412.044833,46.8338333 411.1565,46.4375 C410.268167,46.0411667 409.5165,45.5013333 408.9015,44.818 C408.2865,44.1346667 407.808167,43.3283333 407.4665,42.399 C407.124833,41.4696667 406.954,40.472 406.954,39.406 C406.954,38.34 407.124833,37.3423333 407.4665,36.413 C407.808167,35.4836667 408.2865,34.6773333 408.9015,33.994 C409.5165,33.3106667 410.268167,32.7708333 411.1565,32.3745 C412.044833,31.9781667 413.049333,31.78 414.17,31.78 C415.290667,31.78 416.295167,31.9781667 417.1835,32.3745 C418.071833,32.7708333 418.830333,33.3106667 419.459,33.994 C420.087667,34.6773333 420.572833,35.4836667 420.9145,36.413 C421.256167,37.3423333 421.427,38.34 421.427,39.406 C421.427,40.472 421.256167,41.4696667 420.9145,42.399 C420.572833,43.3283333 420.087667,44.1346667 419.459,44.818 C418.830333,45.5013333 418.071833,46.0411667 417.1835,46.4375 C416.295167,46.8338333 415.290667,47.032 414.17,47.032 Z M432.005,60.808 L432.005,45.802 L432.087,45.802 C432.524333,46.458 433.043667,47.0183333 433.645,47.483 C434.246333,47.9476667 434.875,48.3303333 435.531,48.631 C436.187,48.9316667 436.8635,49.1503333 437.5605,49.287 C438.2575,49.4236667 438.920333,49.492 439.549,49.492 C441.052333,49.492 442.425833,49.2391667 443.6695,48.7335 C444.913167,48.2278333 445.986,47.524 446.888,46.622 C447.79,45.72 448.493833,44.654 448.9995,43.424 C449.505167,42.194 449.758,40.8546667 449.758,39.406 C449.758,37.9573333 449.505167,36.618 448.9995,35.388 C448.493833,34.158 447.79,33.092 446.888,32.19 C445.986,31.288 444.913167,30.5841667 443.6695,30.0785 C442.425833,29.5728333 441.052333,29.32 439.549,29.32 C438.920333,29.32 438.2575,29.3883333 437.5605,29.525 C436.8635,29.6616667 436.187,29.8803333 435.531,30.181 C434.875,30.4816667 434.246333,30.8643333 433.645,31.329 C433.043667,31.7936667 432.524333,32.354 432.087,33.01 L432.087,33.01 L432.005,33.01 L432.005,29.812 L429.299,29.812 L429.299,60.808 L432.005,60.808 Z M439.549,47.032 C438.428333,47.032 437.403333,46.8338333 436.474,46.4375 C435.544667,46.0411667 434.738333,45.5013333 434.055,44.818 C433.371667,44.1346667 432.838667,43.3283333 432.456,42.399 C432.073333,41.4696667 431.882,40.472 431.882,39.406 C431.882,38.34 432.073333,37.3423333 432.456,36.413 C432.838667,35.4836667 433.371667,34.6773333 434.055,33.994 C434.738333,33.3106667 435.544667,32.7708333 436.474,32.3745 C437.403333,31.9781667 438.428333,31.78 439.549,31.78 C440.669667,31.78 441.674167,31.9781667 442.5625,32.3745 C443.450833,32.7708333 444.209333,33.3106667 444.838,33.994 C445.466667,34.6773333 445.951833,35.4836667 446.2935,36.413 C446.635167,37.3423333 446.806,38.34 446.806,39.406 C446.806,40.472 446.635167,41.4696667 446.2935,42.399 C445.951833,43.3283333 445.466667,44.1346667 444.838,44.818 C444.209333,45.5013333 443.450833,46.0411667 442.5625,46.4375 C441.674167,46.8338333 440.669667,47.032 439.549,47.032 Z M463.288,49.492 C464.873333,49.492 466.356167,49.1776667 467.7365,48.549 C469.116833,47.9203333 470.381,46.8816667 471.529,45.433 L471.529,45.433 L469.438,43.711 C468.891333,44.5856667 468.091833,45.3578333 467.0395,46.0275 C465.987167,46.6971667 464.736667,47.032 463.288,47.032 C462.331333,47.032 461.443,46.8543333 460.623,46.499 C459.803,46.1436667 459.078667,45.6585 458.45,45.0435 C457.821333,44.4285 457.315667,43.6973333 456.933,42.85 C456.550333,42.0026667 456.318,41.1006667 456.236,40.144 L456.236,40.144 L472.226,40.144 L472.226,38.914 C472.226,37.602 472.021,36.3651667 471.611,35.2035 C471.201,34.0418333 470.6065,33.0305 469.8275,32.1695 C469.0485,31.3085 468.085,30.6183333 466.937,30.099 C465.789,29.5796667 464.490667,29.32 463.042,29.32 C461.675333,29.32 460.404333,29.5728333 459.229,30.0785 C458.053667,30.5841667 457.028667,31.288 456.154,32.19 C455.279333,33.092 454.596,34.158 454.104,35.388 C453.612,36.618 453.366,37.9573333 453.366,39.406 C453.366,40.8546667 453.618833,42.194 454.1245,43.424 C454.630167,44.654 455.320333,45.72 456.195,46.622 C457.069667,47.524 458.115167,48.2278333 459.3315,48.7335 C460.547833,49.2391667 461.866667,49.492 463.288,49.492 Z M469.274,37.93 L456.318,37.93 C456.318,37.1373333 456.5025,36.372 456.8715,35.634 C457.2405,34.896 457.7325,34.24 458.3475,33.666 C458.9625,33.092 459.68,32.6341667 460.5,32.2925 C461.32,31.9508333 462.167333,31.78 463.042,31.78 C465.01,31.78 466.540667,32.3471667 467.634,33.4815 C468.727333,34.6158333 469.274,36.0986667 469.274,37.93 L469.274,37.93 Z M480.139,49 L480.139,38.176 C480.139,37.52 480.255167,36.8366667 480.4875,36.126 C480.719833,35.4153333 481.082,34.7525 481.574,34.1375 C482.066,33.5225 482.681,33.0168333 483.419,32.6205 C484.157,32.2241667 485.045333,32.026 486.084,32.026 C486.767333,32.026 487.286667,32.0943333 487.642,32.231 L487.642,32.231 L488.175,29.566 C487.601,29.402 486.931333,29.32 486.166,29.32 C485.318667,29.32 484.560167,29.4361667 483.8905,29.6685 C483.220833,29.9008333 482.633167,30.2083333 482.1275,30.591 C481.621833,30.9736667 481.191333,31.4041667 480.836,31.8825 C480.480667,32.3608333 480.207333,32.8596667 480.016,33.379 L480.016,33.379 L479.934,33.379 L479.934,29.812 L477.269,29.812 C477.296333,31.206 477.3305,32.3403333 477.3715,33.215 C477.4125,34.0896667 477.433,34.9506667 477.433,35.798 L477.433,35.798 L477.433,49 L480.139,49 Z M496.539,49.492 C497.468333,49.492 498.384,49.3826667 499.286,49.164 C500.188,48.9453333 500.9875,48.5968333 501.6845,48.1185 C502.3815,47.6401667 502.941833,47.0251667 503.3655,46.2735 C503.789167,45.5218333 504.001,44.6266667 504.001,43.588 C504.001,42.2213333 503.556833,41.0801667 502.6685,40.1645 C501.780167,39.2488333 500.666333,38.6406667 499.327,38.34 L499.327,38.34 L496.58,37.684 C495.322667,37.3833333 494.379667,37.028 493.751,36.618 C493.122333,36.208 492.808,35.552 492.808,34.65 C492.808,34.1306667 492.924167,33.6933333 493.1565,33.338 C493.388833,32.9826667 493.696333,32.6888333 494.079,32.4565 C494.461667,32.2241667 494.892167,32.0533333 495.3705,31.944 C495.848833,31.8346667 496.320333,31.78 496.785,31.78 C497.769,31.78 498.602667,32.0123333 499.286,32.477 C499.969333,32.9416667 500.516,33.5703333 500.926,34.363 L500.926,34.363 L503.345,32.764 C502.716333,31.5066667 501.828,30.6183333 500.68,30.099 C499.532,29.5796667 498.288333,29.32 496.949,29.32 C496.047,29.32 495.172333,29.4361667 494.325,29.6685 C493.477667,29.9008333 492.719167,30.2493333 492.0495,30.714 C491.379833,31.1786667 490.846833,31.78 490.4505,32.518 C490.054167,33.256 489.856,34.117 489.856,35.101 C489.856,36.003 490.047333,36.7615 490.43,37.3765 C490.812667,37.9915 491.2705,38.4903333 491.8035,38.873 C492.3365,39.2556667 492.883167,39.5426667 493.4435,39.734 C494.003833,39.9253333 494.448,40.062 494.776,40.144 L494.776,40.144 L497.4,40.759 C498.411333,41.005 499.272333,41.3398333 499.983,41.7635 C500.693667,42.1871667 501.049,42.8773333 501.049,43.834 C501.049,44.3806667 500.919167,44.859 500.6595,45.269 C500.399833,45.679 500.058167,46.0138333 499.6345,46.2735 C499.210833,46.5331667 498.725667,46.7245 498.179,46.8475 C497.632333,46.9705 497.085667,47.032 496.539,47.032 C495.391,47.032 494.400167,46.7723333 493.5665,46.253 C492.732833,45.7336667 492.042667,45.0366667 491.496,44.162 L491.496,44.162 L489.159,45.761 C490.061,47.1276667 491.1475,48.0911667 492.4185,48.6515 C493.6895,49.2118333 495.063,49.492 496.539,49.492 Z" id="forDevelopers" fill="#000000" fill-rule="nonzero"></path>
    </g>
</svg>